<svg width="709" height="174" viewBox="0 0 709 174" fill="none" xmlns="http://www.w3.org/2000/svg">
<g clip-path="url(#clip0_1_138)">
<g clip-path="url(#clip1_1_138)">
<g clip-path="url(#clip2_1_138)">
<mask id="mask0_1_138" style="mask-type:luminance" maskUnits="userSpaceOnUse" x="0" y="0" width="709" height="174">
<path d="M708.636 0.52063H0.0234375V173.395H708.636V0.52063Z" fill="white"/>
</mask>
<g mask="url(#mask0_1_138)">
<path d="M1.15381 6.27856H17.3193V50.5692H25.2472V6.27856H50.4788V122.819H25.2472V74.3277H17.3193V122.819H1.15381V6.27856Z" fill="#323232"/>
<path d="M147.31 64.473C147.31 102.008 134.922 125.566 98.8673 125.566C66.0948 125.566 53.8545 102.415 53.8545 64.2094C53.8545 28.3521 66.0948 4.70532 100.4 4.70532C134.705 4.70532 147.31 28.7753 147.31 64.481V64.473ZM88.0516 63.9858C88.0516 90.859 89.5612 98.6375 96.9777 98.6375C104.395 98.6375 106.795 91.1619 106.795 63.6983C106.795 38.2547 104.481 31.7142 96.893 31.7142C89.9404 31.7142 88.0439 38.0791 88.0439 63.9778L88.0516 63.9858Z" fill="#323232"/>
<path d="M174.725 36.5219H146.319V6.28662H252.998V36.5219H220.86V122.827H174.725V36.5219Z" fill="#323232"/>
<path d="M300.619 87.0738C301.726 91.9853 304.559 97.5754 313.069 97.5754C319.532 97.5754 323.001 94.8677 323.001 90.7948C323.001 86.722 321.895 83.5037 303.77 79.9499C260.267 71.4767 256.009 54.3706 256.009 39.1252C256.009 17.1076 274.288 0.504639 311.342 0.504639C345.229 0.504639 368.665 13.5539 370.399 37.4242H323.791C322.846 32.3371 320.322 28.4478 312.914 28.4478C307.555 28.4478 304.877 30.652 304.877 34.0461C304.877 38.111 309.608 40.1395 321.91 42.5193C362.579 50.146 373.449 65.048 373.449 83.8551C373.449 109.778 351.067 125.862 314.02 125.862C273.669 125.862 254.329 108.924 251.023 87.0738H300.627H300.619Z" fill="#323232"/>
<path d="M417.107 104.02L413.956 122.827H368.912L400.284 6.28662H462.762L490.796 122.827H446.31L442.919 104.02H417.083H417.092H417.107ZM436.888 72.6827C435.363 63.6106 431.6 46.0892 429.718 33.2156H430.269C428.371 46.6003 425.468 61.047 423.378 72.6827H436.904H436.896H436.888Z" fill="#323232"/>
<path d="M529.244 6.27856V88.8624C529.244 95.2357 535.043 98.6135 540.3 98.6135C545.208 98.6135 551.038 95.4111 551.038 88.8624V6.27856H588.781V84.1586C588.781 114.681 565.083 126.133 538.465 126.133C511.848 126.133 487.591 113.731 487.591 83.911V6.27856H529.244Z" fill="#323232"/>
<path d="M666.496 82.7212V84.0069C666.496 106.536 659.737 126.142 633.266 126.142C609.421 126.142 593.952 112.15 593.952 69.0969V61.582C593.952 17.1955 613.068 3.35571 633.995 3.35571C659.93 3.35571 666.496 24.8861 666.496 44.7075V46.2089H636.293V44.3002C636.293 34.2058 634.916 30.3406 632.562 30.3406C630.642 30.3406 627.599 34.4215 627.599 60.5598V69.0011C627.599 96.5134 630.224 100.218 632.516 100.218C635.04 100.218 636.425 95.9297 636.425 84.7496V82.7212H666.504H666.496Z" fill="#323232"/>
<path d="M704.696 70.8139H690.954V100.626H708.637L705.803 122.819H670.956V6.27856H705.648V28.4718H690.954V48.6367H704.696V70.8298V70.8139Z" fill="#323232"/>
<path d="M262.667 165.68V141.562H266.299V151.065C267.445 149.301 269.163 148.438 271.447 148.423C273.398 148.423 274.907 149.022 275.968 150.211C277.036 151.401 277.57 153.062 277.57 155.186V165.672H273.94V155.706C273.94 152.951 272.747 151.577 270.378 151.577C269.186 151.577 268.21 151.952 267.452 152.679C266.693 153.421 266.306 154.468 266.306 155.809V165.664H262.675L262.66 165.688L262.667 165.68Z" fill="#323232"/>
<path d="M294.734 163.612C293.125 165.273 291.089 166.104 288.65 166.104C286.21 166.104 284.174 165.273 282.541 163.612C280.915 161.951 280.103 159.826 280.103 157.263C280.103 154.699 280.922 152.583 282.541 150.938C284.167 149.284 286.195 148.454 288.65 148.454C291.104 148.454 293.125 149.284 294.734 150.938C296.345 152.591 297.15 154.699 297.15 157.263C297.15 159.826 296.345 161.951 294.734 163.612ZM285.196 161.488C286.063 162.533 287.202 163.053 288.65 163.053C290.098 163.053 291.235 162.533 292.103 161.488C292.97 160.442 293.403 159.028 293.403 157.255C293.403 155.482 292.97 154.1 292.095 153.062C291.22 152.016 290.074 151.497 288.665 151.497C287.256 151.497 286.079 152.008 285.212 153.038C284.345 154.068 283.911 155.474 283.911 157.255C283.911 159.036 284.345 160.442 285.212 161.488H285.196Z" fill="#323232"/>
<path d="M305.567 166.104C302.221 166.104 300.549 164.259 300.549 160.562V152.024H298.025V148.862H300.65L301.494 143.902H304.227V148.862H310.723V152.024H304.227V160.457C304.227 162.007 304.777 162.782 305.876 162.782C306.914 162.782 307.835 161.815 308.663 159.867L311.489 161.352C310.096 164.515 308.121 166.104 305.575 166.104H305.567Z" fill="#323232"/>
<path d="M312.65 173.387C311.039 173.387 309.7 172.932 308.647 171.997L309.995 169.043C310.645 169.825 311.357 170.225 312.108 170.225C313.123 170.225 313.626 169.554 313.626 168.212V148.854H317.257V168.284C317.257 170.081 316.823 171.382 315.956 172.189C315.089 172.979 313.982 173.379 312.65 173.395V173.379V173.387ZM315.437 146.019C314.833 146.043 314.261 145.819 313.827 145.396C313.626 145.196 313.455 144.948 313.347 144.661C313.239 144.389 313.176 144.094 313.192 143.79C313.192 143.495 313.239 143.191 313.347 142.912C313.455 142.641 313.626 142.377 313.827 142.177C314.268 141.77 314.841 141.53 315.437 141.53C316.033 141.53 316.607 141.754 317.048 142.177C317.265 142.385 317.435 142.632 317.543 142.912C317.651 143.191 317.714 143.495 317.698 143.79C317.698 144.086 317.651 144.389 317.527 144.645C317.404 144.9 317.249 145.164 317.032 145.364C316.815 145.571 316.576 145.739 316.297 145.851C316.018 145.962 315.732 146.01 315.43 146.01L315.437 146.019Z" fill="#323232"/>
<path d="M326.276 166.104C324.411 166.104 322.909 165.616 321.755 164.666C320.602 163.708 320.021 162.422 320.021 160.793C320.021 159.315 320.625 158.062 321.825 157.031C323.024 156.001 324.534 155.49 326.346 155.49C328.158 155.49 329.776 156.097 331.061 157.327V155.282C331.061 154.076 330.759 153.15 330.17 152.487C329.582 151.832 328.731 151.497 327.631 151.497C325.41 151.497 324.031 152.663 323.497 154.995L320.168 154.26C320.609 152.463 321.499 151.034 322.823 149.996C324.147 148.95 325.796 148.43 327.771 148.43C329.923 148.43 331.618 149.013 332.873 150.18C334.111 151.345 334.739 153.054 334.739 155.291V165.664H331.201V163.54C330.008 165.225 328.375 166.071 326.292 166.071L326.276 166.095V166.104ZM326.95 163.324C328.561 163.324 329.931 162.494 331.054 160.833V160.313C329.939 158.924 328.561 158.229 326.95 158.229C326.013 158.229 325.239 158.469 324.666 158.94C324.388 159.148 324.17 159.428 324.015 159.747C323.861 160.066 323.784 160.418 323.784 160.761C323.784 161.104 323.845 161.471 324 161.791C324.147 162.111 324.372 162.398 324.65 162.614C325.232 163.085 325.982 163.324 326.958 163.324L326.942 163.34L326.95 163.324Z" fill="#323232"/>
<path d="M338.253 165.68V148.854H341.791V151.769C342.698 149.644 344.23 148.582 346.437 148.582C347.738 148.582 348.821 149.013 349.657 149.9C350.51 150.778 350.935 151.96 350.935 153.438C350.935 154.316 350.78 155.202 350.501 156.041L347.172 155.689C347.242 155.234 347.281 154.771 347.304 154.3C347.304 152.559 346.607 151.697 345.221 151.697C344.284 151.697 343.487 152.208 342.853 153.238C342.218 154.268 341.892 155.617 341.892 157.319V165.68H338.261H338.253Z" fill="#323232"/>
<path d="M239.983 151.441C242.693 149.892 246.393 147.767 246.393 141.579H241.903C241.903 145.036 240.269 145.971 237.799 147.4C235.09 148.95 231.389 151.074 231.389 157.263H235.88C235.88 153.805 237.513 152.87 239.983 151.441Z" fill="#FF3C00"/>
<path d="M247.74 150.012C247.74 153.469 246.106 154.404 243.637 155.833C240.927 157.383 237.227 159.507 237.227 165.696H241.717C241.717 162.238 243.351 161.304 245.821 159.874C248.53 158.325 252.231 156.201 252.231 150.012H247.74Z" fill="#FF3C00"/>
<path d="M6.29455 147.767H11.0792L17.3503 165.656H13.4637L12.3489 162.31H5.02485L3.90998 165.656H0.0234375L6.29455 147.767ZM11.3966 159.467L8.79526 151.673H8.57074L5.96939 159.467H11.3966Z" fill="#323232"/>
<path d="M24.3799 156.712C24.3799 150.938 27.5542 147.536 32.5788 147.536C36.3725 147.536 39.4151 149.533 39.7635 153.973H36.1479C35.6524 151.753 34.2434 150.826 32.4549 150.826C29.4355 150.826 28.1658 153.406 28.1658 156.704C28.1658 160.002 29.4045 162.605 32.4549 162.605C34.2356 162.605 35.6524 161.687 36.1479 159.435H39.7635C39.4151 163.908 36.3725 165.904 32.5324 165.904C27.5542 165.904 24.3799 162.502 24.3799 156.704V156.712Z" fill="#323232"/>
<path d="M41.2891 156.712C41.2891 151.218 44.5562 147.536 49.5654 147.536C54.5745 147.536 57.8417 151.218 57.8417 156.712C57.8417 162.206 54.5745 165.912 49.5654 165.912C44.5562 165.912 41.2891 162.183 41.2891 156.712ZM49.5654 162.614C52.4145 162.614 54.0248 160.265 54.0248 156.712C54.0248 153.158 52.4145 150.834 49.5654 150.834C46.7163 150.834 45.1059 153.134 45.1059 156.712C45.1059 160.289 46.7163 162.614 49.5654 162.614Z" fill="#323232"/>
<path d="M60.1797 147.767H64.043L71.0263 159.523H71.1038V147.767H74.82V165.656H70.8096L63.9733 154.133H63.8959V165.656H60.1797V147.767Z" fill="#323232"/>
<path d="M77.8007 147.767H89.2667V151.089H81.5092V155.282H87.9273V158.373H81.5092V165.656H77.793V147.767H77.8007Z" fill="#323232"/>
<path d="M91.0479 147.767H102.885V151.089H94.7561V155.099H102.142V158.086H94.7561V162.326H103.133V165.649H91.0479V147.76V147.767Z" fill="#323232"/>
<path d="M105.51 147.767H112.524C117.131 147.767 119.136 150.243 119.136 153.749C119.136 156.281 118.067 158.325 115.668 159.22L119.307 165.656H115.637L112.339 159.699H109.218V165.656H105.502V147.767H105.51ZM112.4 156.377C114.429 156.377 115.327 155.33 115.327 153.741C115.327 152.151 114.436 151.082 112.4 151.082H109.226V156.369H112.4V156.377Z" fill="#323232"/>
<path d="M121.482 147.767H133.32V151.089H125.19V155.099H132.576V158.086H125.19V162.326H133.567V165.649H121.482V147.76V147.767Z" fill="#323232"/>
<path d="M135.952 147.767H139.815L146.799 159.523H146.876V147.767H150.593V165.656H146.581L139.745 154.133H139.668V165.656H135.952V147.767Z" fill="#323232"/>
<path d="M152.977 156.712C152.977 150.938 156.151 147.536 161.176 147.536C164.97 147.536 168.012 149.533 168.36 153.973H164.745C164.25 151.753 162.84 150.826 161.052 150.826C158.032 150.826 156.763 153.406 156.763 156.704C156.763 160.002 158.002 162.605 161.052 162.605C162.833 162.605 164.25 161.687 164.745 159.435H168.36C168.012 163.908 164.97 165.904 161.13 165.904C156.151 165.904 152.977 162.502 152.977 156.704V156.712Z" fill="#323232"/>
<path d="M170.613 147.767H182.451V151.089H174.322V155.099H181.707V158.086H174.322V162.326H182.698V165.649H170.613V147.76V147.767Z" fill="#323232"/>
<path d="M191.354 147.767H198.392C202.255 147.767 204.012 149.533 204.012 152.24C204.012 154.181 203.145 155.282 201.512 155.818C204.09 156.536 205.205 158.197 205.205 160.418C205.205 163.309 203.269 165.656 198.686 165.656H191.354V147.767ZM198.245 155.027C199.359 155.027 200.304 154.412 200.304 152.958C200.304 151.505 199.359 150.994 198.245 150.994H195.071V155.035H198.245V155.027ZM198.57 162.438C200.652 162.438 201.373 161.288 201.373 159.986C201.373 158.685 200.652 157.455 198.57 157.455H195.079V162.438H198.57Z" fill="#323232"/>
<path d="M211.468 159.084L205.198 147.767H209.409L213.373 155.386L217.361 147.767H221.572L215.301 159.084V165.648H211.461V159.084H211.468Z" fill="#323232"/>
</g>
</g>
</g>
</g>
<defs>
<clipPath id="clip0_1_138">
<rect width="708.66" height="173.73" fill="white"/>
</clipPath>
<clipPath id="clip1_1_138">
<rect width="708.66" height="173.73" fill="white"/>
</clipPath>
<clipPath id="clip2_1_138">
<rect width="708.613" height="173.73" fill="white" transform="translate(0.0234375)"/>
</clipPath>
</defs>
</svg>
