<svg width="408" height="96" viewBox="0 0 408 96" fill="none" xmlns="http://www.w3.org/2000/svg">
<g clip-path="url(#clip0_1_559)">
<g clip-path="url(#clip1_1_559)">
<g clip-path="url(#clip2_1_559)">
<mask id="mask0_1_559" style="mask-type:luminance" maskUnits="userSpaceOnUse" x="0" y="0" width="408" height="96">
<path d="M408 0.431641H0V95.6041H408V0.431641Z" fill="white"/>
</mask>
<g mask="url(#mask0_1_559)">
<path d="M0.650879 3.60156H9.95854V27.9849H14.5233V3.60156H29.0509V67.7606H14.5233V41.0647H9.95854V67.7606H0.650879V3.60156Z" fill="white"/>
<path d="M84.8034 35.6392C84.8034 56.3031 77.6707 69.273 56.9112 69.273C38.0418 69.273 30.9941 56.5273 30.9941 35.4941C30.9941 15.7535 38.0418 2.73535 57.7939 2.73535C77.546 2.73535 84.8034 15.9866 84.8034 35.6436V35.6392ZM50.6838 35.3711C50.6838 50.1655 51.5531 54.4478 55.8235 54.4478C60.0941 54.4478 61.476 50.3326 61.476 35.2127C61.476 21.2053 60.1431 17.6045 55.7746 17.6045C51.7715 17.6045 50.6794 21.1086 50.6794 35.3667L50.6838 35.3711Z" fill="white"/>
<path d="M100.588 20.2509H84.2324V3.60547H145.655V20.2509H127.151V67.7646H100.588V20.2509Z" fill="white"/>
<path d="M173.075 48.0816C173.712 50.7855 175.344 53.8631 180.243 53.8631C183.965 53.8631 185.962 52.3726 185.962 50.1304C185.962 47.8881 185.325 46.1163 174.889 44.1598C149.841 39.4951 147.39 30.0777 147.39 21.6847C147.39 9.56334 157.914 0.422852 179.249 0.422852C198.76 0.422852 212.254 7.60683 213.252 20.7482H186.416C185.873 17.9475 184.419 15.8064 180.153 15.8064C177.069 15.8064 175.526 17.0199 175.526 18.8884C175.526 21.1263 178.251 22.243 185.333 23.5532C208.75 27.7519 215.009 35.9559 215.009 46.3098C215.009 60.5811 202.122 69.4357 180.791 69.4357C157.558 69.4357 146.422 60.1106 144.519 48.0816H173.079H173.075Z" fill="white"/>
<path d="M240.146 57.4106L238.331 67.7646H212.396L230.459 3.60547H266.432L282.574 67.7646H256.96L255.008 57.4106H240.132H240.137H240.146ZM251.535 40.1585C250.657 35.164 248.49 25.5179 247.407 18.4307H247.723C246.632 25.7993 244.96 33.7527 243.757 40.1585H251.544H251.539H251.535Z" fill="white"/>
<path d="M304.711 3.60156V49.0665C304.711 52.5748 308.049 54.4346 311.076 54.4346C313.903 54.4346 317.259 52.6716 317.259 49.0665V3.60156H338.99V46.4769C338.99 63.2805 325.346 69.5852 310.02 69.5852C294.694 69.5852 280.728 62.7573 280.728 46.3406V3.60156H304.711Z" fill="white"/>
<path d="M383.737 45.6852V46.3931C383.737 58.7958 379.846 69.5893 364.604 69.5893C350.874 69.5893 341.968 61.8866 341.968 38.1847V34.0476C341.968 9.61142 352.974 1.99219 365.024 1.99219C379.956 1.99219 383.737 13.8453 383.737 24.7576V25.5842H366.348V24.5334C366.348 18.9761 365.554 16.8482 364.198 16.8482C363.094 16.8482 361.342 19.0948 361.342 33.4848V38.1319C361.342 53.2781 362.853 55.3181 364.172 55.3181C365.625 55.3181 366.423 52.9572 366.423 46.802V45.6852H383.741H383.737Z" fill="white"/>
<path d="M405.731 39.1302H397.818V55.5426H408L406.369 67.7606H386.304V3.60156H406.28V15.8196H397.818V26.9209H405.731V39.139V39.1302Z" fill="white"/>
<path d="M151.223 91.3577V78.0801H153.314V83.3119C153.973 82.3403 154.963 81.8655 156.278 81.8567C157.401 81.8567 158.271 82.1865 158.882 82.8418C159.497 83.4965 159.804 84.4109 159.804 85.5803V91.3536H157.713V85.8667C157.713 84.3497 157.027 83.5933 155.663 83.5933C154.976 83.5933 154.415 83.8002 153.978 84.1999C153.541 84.6087 153.318 85.1847 153.318 85.9238V91.3486H151.227L151.218 91.3618L151.223 91.3577Z" fill="white"/>
<path d="M169.687 90.2188C168.76 91.1333 167.587 91.5901 166.183 91.5901C164.779 91.5901 163.606 91.1333 162.666 90.2188C161.73 89.3043 161.262 88.135 161.262 86.7231C161.262 85.3121 161.734 84.1468 162.666 83.2414C163.602 82.3313 164.77 81.874 166.183 81.874C167.596 81.874 168.76 82.3313 169.687 83.2414C170.614 84.1518 171.078 85.3121 171.078 86.7231C171.078 88.135 170.614 89.3043 169.687 90.2188ZM164.195 89.0494C164.695 89.6254 165.349 89.911 166.183 89.911C167.017 89.911 167.672 89.6254 168.171 89.0494C168.67 88.4734 168.92 87.6947 168.92 86.719C168.92 85.7432 168.67 84.9827 168.167 84.4108C167.663 83.8348 167.004 83.5493 166.192 83.5493C165.381 83.5493 164.703 83.8307 164.204 84.3976C163.705 84.9645 163.455 85.7383 163.455 86.719C163.455 87.6997 163.705 88.4734 164.204 89.0494H164.195Z" fill="white"/>
<path d="M175.923 91.5896C173.998 91.5896 173.034 90.5741 173.034 88.5383V83.8384H171.581V82.0975H173.092L173.579 79.3672H175.152V82.0975H178.892V83.8384H175.152V88.4811C175.152 89.3344 175.468 89.7606 176.101 89.7606C176.699 89.7606 177.229 89.2285 177.706 88.1559L179.333 88.9736C178.531 90.7148 177.394 91.5896 175.928 91.5896H175.923Z" fill="white"/>
<path d="M180.002 95.5992C179.075 95.5992 178.304 95.3492 177.698 94.8345L178.473 93.2074C178.847 93.6386 179.258 93.8587 179.69 93.8587C180.274 93.8587 180.564 93.4888 180.564 92.7506V82.0932H182.654V92.7903C182.654 93.7793 182.405 94.496 181.905 94.9396C181.406 95.3749 180.769 95.595 180.002 95.6041V95.595V95.5992ZM181.606 80.5324C181.259 80.5456 180.929 80.4225 180.68 80.1895C180.564 80.0795 180.466 79.9433 180.403 79.785C180.341 79.6355 180.305 79.4728 180.314 79.3057C180.314 79.1431 180.341 78.976 180.403 78.8222C180.466 78.6726 180.564 78.5275 180.68 78.4176C180.934 78.1934 181.264 78.0615 181.606 78.0615C181.95 78.0615 182.28 78.1847 182.534 78.4176C182.659 78.5319 182.757 78.6682 182.82 78.8222C182.882 78.976 182.917 79.1431 182.908 79.3057C182.908 79.4684 182.882 79.6355 182.811 79.7762C182.739 79.9169 182.65 80.062 182.525 80.1719C182.4 80.2862 182.262 80.3785 182.101 80.4401C181.941 80.5016 181.776 80.528 181.602 80.528L181.606 80.5324Z" fill="white"/>
<path d="M187.847 91.5898C186.773 91.5898 185.908 91.3216 185.245 90.7986C184.58 90.2706 184.246 89.563 184.246 88.6659C184.246 87.8532 184.593 87.1622 185.284 86.5953C185.975 86.0284 186.844 85.747 187.888 85.747C188.931 85.747 189.862 86.0814 190.602 86.7583V85.6328C190.602 84.9683 190.428 84.4585 190.09 84.0935C189.751 83.7335 189.261 83.549 188.628 83.549C187.348 83.549 186.555 84.1903 186.248 85.4739L184.331 85.0701C184.585 84.0803 185.097 83.2932 185.859 82.722C186.622 82.1461 187.571 81.8604 188.708 81.8604C189.947 81.8604 190.923 82.1813 191.646 82.8232C192.358 83.4654 192.72 84.4055 192.72 85.637V91.3481H190.683V90.1788C189.997 91.1065 189.056 91.5724 187.856 91.5724L187.847 91.5857V91.5898ZM188.235 90.0596C189.162 90.0596 189.952 89.6028 190.598 88.6883V88.4028C189.956 87.6372 189.162 87.2549 188.235 87.2549C187.696 87.2549 187.251 87.3865 186.92 87.6463C186.76 87.7605 186.635 87.9145 186.546 88.0899C186.457 88.2662 186.412 88.4599 186.412 88.6485C186.412 88.8381 186.448 89.04 186.537 89.2154C186.622 89.3917 186.751 89.5498 186.911 89.669C187.246 89.928 187.678 90.0596 188.24 90.0596L188.231 90.0687L188.235 90.0596Z" fill="white"/>
<path d="M194.744 91.3576V82.0939H196.781V83.6983C197.303 82.5291 198.185 81.9443 199.456 81.9443C200.204 81.9443 200.829 82.1818 201.31 82.6698C201.8 83.1538 202.045 83.8043 202.045 84.6178C202.045 85.1011 201.956 85.5894 201.796 86.0511L199.879 85.8575C199.919 85.6067 199.942 85.3518 199.955 85.092C199.955 84.1336 199.554 83.6594 198.756 83.6594C198.216 83.6594 197.757 83.9408 197.392 84.5077C197.026 85.0746 196.839 85.8178 196.839 86.7546V91.3576H194.749H194.744Z" fill="white"/>
<path d="M138.162 83.5174C139.722 82.6648 141.853 81.4952 141.853 78.0879H139.268C139.268 79.9917 138.327 80.506 136.905 81.2931C135.345 82.146 133.214 83.3154 133.214 86.7226H135.799C135.799 84.8191 136.739 84.3044 138.162 83.5174Z" fill="#FF3C00"/>
<path d="M142.629 82.7314C142.629 84.6351 141.688 85.1498 140.266 85.9369C138.706 86.7893 136.575 87.9586 136.575 91.3666H139.16C139.16 89.4624 140.101 88.9484 141.523 88.1614C143.083 87.3082 145.214 86.1388 145.214 82.7314H142.629Z" fill="#FF3C00"/>
<path d="M3.61073 81.4951H6.36559L9.9763 91.3437H7.73857L7.09666 89.5015H2.87968L2.23777 91.3437H0L3.61073 81.4951ZM6.54836 87.9357L5.05058 83.6447H4.9213L3.42352 87.9357H6.54836Z" fill="white"/>
<path d="M14.0239 86.4195C14.0239 83.2407 15.8516 81.3682 18.7446 81.3682C20.9289 81.3682 22.6807 82.4674 22.8813 84.9116H20.7996C20.5143 83.6893 19.703 83.1795 18.6733 83.1795C16.9348 83.1795 16.2037 84.5996 16.2037 86.4154C16.2037 88.2311 16.9169 89.6645 18.6733 89.6645C19.6985 89.6645 20.5143 89.1588 20.7996 87.9191H22.8813C22.6807 90.3812 20.9289 91.4802 18.7178 91.4802C15.8516 91.4802 14.0239 89.6074 14.0239 86.4154V86.4195Z" fill="white"/>
<path d="M23.7598 86.4195C23.7598 83.3947 25.6409 81.3682 28.525 81.3682C31.4091 81.3682 33.2903 83.3947 33.2903 86.4195C33.2903 89.4443 31.4091 91.4843 28.525 91.4843C25.6409 91.4843 23.7598 89.4311 23.7598 86.4195ZM28.525 89.6686C30.1654 89.6686 31.0927 88.3759 31.0927 86.4195C31.0927 84.4631 30.1654 83.1836 28.525 83.1836C26.8846 83.1836 25.9574 84.4498 25.9574 86.4195C25.9574 88.3892 26.8846 89.6686 28.525 89.6686Z" fill="white"/>
<path d="M34.6362 81.4951H36.8606L40.8815 87.9672H40.9261V81.4951H43.0658V91.3437H40.7566L36.8206 84.9994H36.776V91.3437H34.6362V81.4951Z" fill="white"/>
<path d="M44.7822 81.4951H51.3841V83.3244H46.9175V85.6325H50.6129V87.3341H46.9175V91.3437H44.7778V81.4951H44.7822Z" fill="white"/>
<path d="M52.4092 81.4956H59.2249V83.3249H54.5444V85.5312H58.797V87.1757H54.5444V89.5103H59.3676V91.3392H52.4092V81.4912V81.4956Z" fill="white"/>
<path d="M60.7363 81.4951H64.775C67.4274 81.4951 68.5819 82.8585 68.5819 84.7884C68.5819 86.1821 67.9668 87.3076 66.5849 87.8L68.68 91.3437H66.567L64.668 88.064H62.8716V91.3437H60.7319V81.4951H60.7363ZM64.7037 86.235C65.8717 86.235 66.3887 85.659 66.3887 84.7834C66.3887 83.9087 65.876 83.3194 64.7037 83.3194H62.876V86.2301H64.7037V86.235Z" fill="white"/>
<path d="M69.9321 81.4956H76.748V83.3249H72.0674V85.5312H76.32V87.1757H72.0674V89.5103H76.8906V91.3392H69.9321V81.4912V81.4956Z" fill="white"/>
<path d="M78.2637 81.4951H80.4881L84.5088 87.9672H84.5535V81.4951H86.6936V91.3437H84.3838L80.448 84.9994H80.4034V91.3437H78.2637V81.4951Z" fill="white"/>
<path d="M88.0669 86.4195C88.0669 83.2407 89.8942 81.3682 92.7874 81.3682C94.9714 81.3682 96.7234 82.4674 96.9237 84.9116H94.8423C94.5568 83.6893 93.7458 83.1795 92.7163 83.1795C90.9775 83.1795 90.2459 84.5996 90.2459 86.4154C90.2459 88.2311 90.9593 89.6645 92.7163 89.6645C93.7408 89.6645 94.5568 89.1588 94.8423 87.9191H96.9237C96.7234 90.3812 94.9714 91.4802 92.7601 91.4802C89.8942 91.4802 88.0669 89.6074 88.0669 86.4154V86.4195Z" fill="white"/>
<path d="M98.2212 81.4956H105.036V83.3249H100.356V85.5312H104.609V87.1757H100.356V89.5103H105.18V91.3392H98.2212V81.4912V81.4956Z" fill="white"/>
<path d="M110.163 81.4951H114.215C116.439 81.4951 117.452 82.4668 117.452 83.9575C117.452 85.0259 116.952 85.6326 116.012 85.9272C117.496 86.3228 118.138 87.2372 118.138 88.4596C118.138 90.051 117.023 91.3437 114.385 91.3437H110.163V81.4951ZM114.131 85.4919C114.772 85.4919 115.316 85.1534 115.316 84.3531C115.316 83.5528 114.772 83.2714 114.131 83.2714H112.302V85.496H114.131V85.4919ZM114.318 89.5719C115.517 89.5719 115.931 88.9388 115.931 88.2221C115.931 87.5054 115.517 86.8284 114.318 86.8284H112.307V89.5719H114.318Z" fill="white"/>
<path d="M121.745 87.7247L118.134 81.4951H120.559L122.841 85.6897L125.137 81.4951H127.562L123.951 87.7247V91.3388H121.74V87.7247H121.745Z" fill="white"/>
</g>
</g>
</g>
</g>
<defs>
<clipPath id="clip0_1_559">
<rect width="408" height="96" fill="white"/>
</clipPath>
<clipPath id="clip1_1_559">
<rect width="408" height="96" fill="white"/>
</clipPath>
<clipPath id="clip2_1_559">
<rect width="408" height="96" fill="white"/>
</clipPath>
</defs>
</svg>
