<svg width="15" height="220" viewBox="0 0 15 220" fill="none" xmlns="http://www.w3.org/2000/svg">
<g clip-path="url(#clip0_13249_18)">
<g clip-path="url(#clip1_13249_18)">
<path fill-rule="evenodd" clip-rule="evenodd" d="M9.04211 8.57392C4.45793 8.4817 0.770153 4.73674 0.770153 0.130481C0.770153 0.08691 0.770487 0.0434152 0.771142 0L-0.988281 0.000264336V219.897L0.772219 219.896C0.770795 219.833 0.770072 219.769 0.770072 219.704C0.770072 215.098 4.4579 211.353 9.04211 211.261V200.702C4.4579 200.609 0.770072 196.864 0.770072 192.258C0.770072 187.651 4.4579 183.907 9.04211 183.814V173.254C4.4579 173.162 0.770072 169.417 0.770072 164.811C0.770072 160.205 4.4579 156.459 9.04211 156.367V145.808C4.4579 145.716 0.770072 141.971 0.770072 137.364C0.770072 132.758 4.4579 129.013 9.04211 128.921V118.361C4.4579 118.268 0.770072 114.524 0.770072 109.917C0.770072 105.311 4.4579 101.566 9.04211 101.474V90.9142C4.4579 90.8219 0.770072 87.0772 0.770072 82.4712C0.770072 77.8646 4.4579 74.1199 9.04211 74.0277V63.4674C4.4579 63.3752 0.770072 59.6303 0.770072 55.024C0.770072 50.4177 4.4579 46.6728 9.04211 46.5806V36.0208C4.4579 35.9286 0.770072 32.1837 0.770072 27.5774C0.770072 22.9711 4.4579 19.2262 9.04211 19.134V8.57392Z" fill="#CCCCCC"/>
</g>
</g>
<defs>
<clipPath id="clip0_13249_18">
<rect width="15" height="220" fill="white"/>
</clipPath>
<clipPath id="clip1_13249_18">
<rect width="10.6991" height="220" fill="white" transform="translate(-1)"/>
</clipPath>
</defs>
</svg>
