<svg width="12" height="220" viewBox="0 0 12 220" fill="none" xmlns="http://www.w3.org/2000/svg">
<g clip-path="url(#clip0_1_245)">
<g clip-path="url(#clip1_1_245)">
<path fill-rule="evenodd" clip-rule="evenodd" d="M9.04186 8.57392C4.45769 8.4817 0.769909 4.73674 0.769909 0.130481C0.769909 0.08691 0.770243 0.0434152 0.770898 0L-0.988525 0.000264336V219.897L0.771975 219.896C0.770551 219.833 0.769828 219.769 0.769828 219.704C0.769828 215.098 4.45766 211.353 9.04186 211.261V200.702C4.45766 200.609 0.769828 196.864 0.769828 192.258C0.769828 187.651 4.45766 183.907 9.04186 183.814V173.254C4.45766 173.162 0.769828 169.417 0.769828 164.811C0.769828 160.205 4.45766 156.459 9.04186 156.367V145.808C4.45766 145.716 0.769828 141.971 0.769828 137.364C0.769828 132.758 4.45766 129.013 9.04186 128.921V118.361C4.45766 118.268 0.769828 114.524 0.769828 109.917C0.769828 105.311 4.45766 101.566 9.04186 101.474V90.9142C4.45766 90.8219 0.769828 87.0772 0.769828 82.4712C0.769828 77.8646 4.45766 74.1199 9.04186 74.0277V63.4674C4.45766 63.3752 0.769828 59.6303 0.769828 55.024C0.769828 50.4177 4.45766 46.6728 9.04186 46.5806V36.0208C4.45766 35.9286 0.769828 32.1837 0.769828 27.5774C0.769828 22.9711 4.45766 19.2262 9.04186 19.134V8.57392Z" fill="#CCCCCC"/>
</g>
</g>
<defs>
<clipPath id="clip0_1_245">
<rect width="12" height="220" fill="white"/>
</clipPath>
<clipPath id="clip1_1_245">
<rect width="12" height="220" fill="white"/>
</clipPath>
</defs>
</svg>
